<?xml version="1.0" encoding="UTF-8" standalone="no"?><svg xmlns="http://www.w3.org/2000/svg" xmlns:xlink="http://www.w3.org/1999/xlink" contentStyleType="text/css" height="414px" preserveAspectRatio="none" style="width:534px;height:414px;" version="1.1" viewBox="0 0 534 414" width="534px" zoomAndPan="magnify"><defs><style type="text/css"><![CDATA[*.f_f1f1f1_070707 {fill:#f1f1f1;}*.s_181818_e7e7e7 {stroke:#181818;}*.f_add1b2_2e5233 {fill:#add1b2;}*.f_000000_ffffff {fill:#000000;}@media (prefers-color-scheme:dark) {*.f_f1f1f1_070707 {fill:#070707;}*.s_181818_e7e7e7 {stroke:#e7e7e7;}*.f_add1b2_2e5233 {fill:#2e5233;}*.f_000000_ffffff {fill:#ffffff;}}]]></style></defs><g><!--MD5=[3fd616f346a44cd59a91eb10b19e157c]
class User--><g id="elem_User"><rect class="f_f1f1f1_070707 s_181818_e7e7e7" codeLine="5" height="145.7813" id="User" rx="2.5" ry="2.5" style="stroke-width:0.5;" width="184" x="172" y="7"/><ellipse class="f_add1b2_2e5233 s_181818_e7e7e7" cx="244.25" cy="23" rx="11" ry="11" style="stroke-width:1.0;"/><path class="f_000000_ffffff" d="M243.0469,23.875 L244.5,23.875 L244.5,23.9844 C244.5,24.3906 244.5313,24.5469 244.6094,24.7031 C244.7656,24.9531 245.0469,25.1094 245.3438,25.1094 C245.5938,25.1094 245.8594,24.9688 246.0156,24.75 C246.1406,24.5938 246.1719,24.4375 246.1719,23.9844 L246.1719,22.0625 C246.1719,21.9063 246.1719,21.8594 246.1563,21.7031 C246.0938,21.2344 245.7813,20.9219 245.3281,20.9219 C245.0781,20.9219 244.8125,21.0625 244.6406,21.2813 C244.5313,21.4531 244.5,21.6094 244.5,22.0625 L244.5,22.1875 L243.0469,22.1875 L243.0469,19.7813 L247.0313,19.7813 L247.0313,20.6406 C247.0313,21.0469 247.0625,21.2188 247.1406,21.375 C247.3125,21.625 247.5938,21.7813 247.875,21.7813 C248.1406,21.7813 248.4063,21.6406 248.5781,21.4219 C248.6875,21.25 248.7188,21.1094 248.7188,20.6406 L248.7188,18.0938 L241.0938,18.0938 C240.6563,18.0938 240.5313,18.1094 240.375,18.2031 C240.125,18.3594 239.9688,18.6563 239.9688,18.9375 C239.9688,19.2188 240.1094,19.4688 240.3281,19.6406 C240.4844,19.75 240.6719,19.7813 241.0938,19.7813 L241.3438,19.7813 L241.3438,26.2969 L241.0938,26.2969 C240.6875,26.2969 240.5313,26.3125 240.375,26.4219 C240.125,26.5938 239.9688,26.8594 239.9688,27.1563 C239.9688,27.4219 240.1094,27.6719 240.3281,27.8281 C240.4688,27.9531 240.7031,28 241.0938,28 L249.0938,28 L249.0938,25.4219 C249.0938,24.9844 249.0625,24.8438 248.9844,24.6875 C248.8125,24.4375 248.5313,24.2813 248.25,24.2813 C247.9844,24.2813 247.7188,24.3906 247.5469,24.6406 C247.4375,24.7969 247.4063,24.9375 247.4063,25.4219 L247.4063,26.2969 L243.0469,26.2969 L243.0469,23.875 Z "/><text class="f_000000_ffffff" font-family="sans-serif" font-size="14" lengthAdjust="spacing" textLength="31" x="264.75" y="27.8467">User</text><line class="s_181818_e7e7e7" style="stroke-width:0.5;" x1="173" x2="355" y1="39" y2="39"/><ellipse cx="183" cy="50" fill="#000000" rx="3" ry="3" style="stroke:#000000;stroke-width:1.0;"/><text class="f_000000_ffffff" font-family="sans-serif" font-size="14" lengthAdjust="spacing" textLength="46" x="192" y="55.9951">id : int</text><ellipse cx="183" cy="66.2969" fill="#000000" rx="3" ry="3" style="stroke:#000000;stroke-width:1.0;"/><text class="f_000000_ffffff" font-family="sans-serif" font-size="14" lengthAdjust="spacing" textLength="125" x="192" y="72.292">fullName: varchar</text><ellipse cx="183" cy="82.5938" fill="#000000" rx="3" ry="3" style="stroke:#000000;stroke-width:1.0;"/><text class="f_000000_ffffff" font-family="sans-serif" font-size="14" lengthAdjust="spacing" textLength="105" x="192" y="88.5889">email : varchar</text><ellipse cx="183" cy="98.8906" fill="#000000" rx="3" ry="3" style="stroke:#000000;stroke-width:1.0;"/><text class="f_000000_ffffff" font-family="sans-serif" font-size="14" lengthAdjust="spacing" textLength="129" x="192" y="104.8857">password: varchar</text><ellipse cx="183" cy="115.1875" fill="#000000" rx="3" ry="3" style="stroke:#000000;stroke-width:1.0;"/><text class="f_000000_ffffff" font-family="sans-serif" font-size="14" lengthAdjust="spacing" textLength="158" x="192" y="121.1826">created_at : datetime</text><ellipse cx="183" cy="131.4844" fill="#000000" rx="3" ry="3" style="stroke:#000000;stroke-width:1.0;"/><text class="f_000000_ffffff" font-family="sans-serif" font-size="14" lengthAdjust="spacing" textLength="94" x="192" y="137.4795">role : varchar</text><line class="s_181818_e7e7e7" style="stroke-width:0.5;" x1="173" x2="355" y1="144.7813" y2="144.7813"/></g><!--MD5=[dfb0845b8492ffe07b1ce50e003034d7]
class Team--><g id="elem_Team"><rect class="f_f1f1f1_070707 s_181818_e7e7e7" codeLine="16" height="96.8906" id="Team" rx="2.5" ry="2.5" style="stroke-width:0.5;" width="148" x="7" y="262"/><ellipse class="f_add1b2_2e5233 s_181818_e7e7e7" cx="56.75" cy="278" rx="11" ry="11" style="stroke-width:1.0;"/><path class="f_000000_ffffff" d="M55.5469,278.875 L57,278.875 L57,278.9844 C57,279.3906 57.0313,279.5469 57.1094,279.7031 C57.2656,279.9531 57.5469,280.1094 57.8438,280.1094 C58.0938,280.1094 58.3594,279.9688 58.5156,279.75 C58.6406,279.5938 58.6719,279.4375 58.6719,278.9844 L58.6719,277.0625 C58.6719,276.9063 58.6719,276.8594 58.6563,276.7031 C58.5938,276.2344 58.2813,275.9219 57.8281,275.9219 C57.5781,275.9219 57.3125,276.0625 57.1406,276.2813 C57.0313,276.4531 57,276.6094 57,277.0625 L57,277.1875 L55.5469,277.1875 L55.5469,274.7813 L59.5313,274.7813 L59.5313,275.6406 C59.5313,276.0469 59.5625,276.2188 59.6406,276.375 C59.8125,276.625 60.0938,276.7813 60.375,276.7813 C60.6406,276.7813 60.9063,276.6406 61.0781,276.4219 C61.1875,276.25 61.2188,276.1094 61.2188,275.6406 L61.2188,273.0938 L53.5938,273.0938 C53.1563,273.0938 53.0313,273.1094 52.875,273.2031 C52.625,273.3594 52.4688,273.6563 52.4688,273.9375 C52.4688,274.2188 52.6094,274.4688 52.8281,274.6406 C52.9844,274.75 53.1719,274.7813 53.5938,274.7813 L53.8438,274.7813 L53.8438,281.2969 L53.5938,281.2969 C53.1875,281.2969 53.0313,281.3125 52.875,281.4219 C52.625,281.5938 52.4688,281.8594 52.4688,282.1563 C52.4688,282.4219 52.6094,282.6719 52.8281,282.8281 C52.9688,282.9531 53.2031,283 53.5938,283 L61.5938,283 L61.5938,280.4219 C61.5938,279.9844 61.5625,279.8438 61.4844,279.6875 C61.3125,279.4375 61.0313,279.2813 60.75,279.2813 C60.4844,279.2813 60.2188,279.3906 60.0469,279.6406 C59.9375,279.7969 59.9063,279.9375 59.9063,280.4219 L59.9063,281.2969 L55.5469,281.2969 L55.5469,278.875 Z "/><text class="f_000000_ffffff" font-family="sans-serif" font-size="14" lengthAdjust="spacing" textLength="40" x="77.25" y="282.8467">Team</text><line class="s_181818_e7e7e7" style="stroke-width:0.5;" x1="8" x2="154" y1="294" y2="294"/><ellipse cx="18" cy="305" fill="#000000" rx="3" ry="3" style="stroke:#000000;stroke-width:1.0;"/><text class="f_000000_ffffff" font-family="sans-serif" font-size="14" lengthAdjust="spacing" textLength="42" x="27" y="310.9951">id: int</text><ellipse cx="18" cy="321.2969" fill="#000000" rx="3" ry="3" style="stroke:#000000;stroke-width:1.0;"/><text class="f_000000_ffffff" font-family="sans-serif" font-size="14" lengthAdjust="spacing" textLength="102" x="27" y="327.292">name: varchar</text><ellipse cx="18" cy="337.5938" fill="#000000" rx="3" ry="3" style="stroke:#000000;stroke-width:1.0;"/><text class="f_000000_ffffff" font-family="sans-serif" font-size="14" lengthAdjust="spacing" textLength="122" x="27" y="343.5889">description: text</text><line class="s_181818_e7e7e7" style="stroke-width:0.5;" x1="8" x2="154" y1="350.8906" y2="350.8906"/></g><!--MD5=[ac13618b1a974308c1f12eb6c57723dc]
class Event--><g id="elem_Event"><rect class="f_f1f1f1_070707 s_181818_e7e7e7" codeLine="24" height="129.4844" id="Event" rx="2.5" ry="2.5" style="stroke-width:0.5;" width="148" x="190" y="246"/><ellipse class="f_add1b2_2e5233 s_181818_e7e7e7" cx="238.75" cy="262" rx="11" ry="11" style="stroke-width:1.0;"/><path class="f_000000_ffffff" d="M237.5469,262.875 L239,262.875 L239,262.9844 C239,263.3906 239.0313,263.5469 239.1094,263.7031 C239.2656,263.9531 239.5469,264.1094 239.8438,264.1094 C240.0938,264.1094 240.3594,263.9688 240.5156,263.75 C240.6406,263.5938 240.6719,263.4375 240.6719,262.9844 L240.6719,261.0625 C240.6719,260.9063 240.6719,260.8594 240.6563,260.7031 C240.5938,260.2344 240.2813,259.9219 239.8281,259.9219 C239.5781,259.9219 239.3125,260.0625 239.1406,260.2813 C239.0313,260.4531 239,260.6094 239,261.0625 L239,261.1875 L237.5469,261.1875 L237.5469,258.7813 L241.5313,258.7813 L241.5313,259.6406 C241.5313,260.0469 241.5625,260.2188 241.6406,260.375 C241.8125,260.625 242.0938,260.7813 242.375,260.7813 C242.6406,260.7813 242.9063,260.6406 243.0781,260.4219 C243.1875,260.25 243.2188,260.1094 243.2188,259.6406 L243.2188,257.0938 L235.5938,257.0938 C235.1563,257.0938 235.0313,257.1094 234.875,257.2031 C234.625,257.3594 234.4688,257.6563 234.4688,257.9375 C234.4688,258.2188 234.6094,258.4688 234.8281,258.6406 C234.9844,258.75 235.1719,258.7813 235.5938,258.7813 L235.8438,258.7813 L235.8438,265.2969 L235.5938,265.2969 C235.1875,265.2969 235.0313,265.3125 234.875,265.4219 C234.625,265.5938 234.4688,265.8594 234.4688,266.1563 C234.4688,266.4219 234.6094,266.6719 234.8281,266.8281 C234.9688,266.9531 235.2031,267 235.5938,267 L243.5938,267 L243.5938,264.4219 C243.5938,263.9844 243.5625,263.8438 243.4844,263.6875 C243.3125,263.4375 243.0313,263.2813 242.75,263.2813 C242.4844,263.2813 242.2188,263.3906 242.0469,263.6406 C241.9375,263.7969 241.9063,263.9375 241.9063,264.4219 L241.9063,265.2969 L237.5469,265.2969 L237.5469,262.875 Z "/><text class="f_000000_ffffff" font-family="sans-serif" font-size="14" lengthAdjust="spacing" textLength="42" x="259.25" y="266.8467">Event</text><line class="s_181818_e7e7e7" style="stroke-width:0.5;" x1="191" x2="337" y1="278" y2="278"/><ellipse cx="201" cy="289" fill="#000000" rx="3" ry="3" style="stroke:#000000;stroke-width:1.0;"/><text class="f_000000_ffffff" font-family="sans-serif" font-size="14" lengthAdjust="spacing" textLength="42" x="210" y="294.9951">id: int</text><ellipse cx="201" cy="305.2969" fill="#000000" rx="3" ry="3" style="stroke:#000000;stroke-width:1.0;"/><text class="f_000000_ffffff" font-family="sans-serif" font-size="14" lengthAdjust="spacing" textLength="93" x="210" y="311.292">title: varchar</text><ellipse cx="201" cy="321.5938" fill="#000000" rx="3" ry="3" style="stroke:#000000;stroke-width:1.0;"/><text class="f_000000_ffffff" font-family="sans-serif" font-size="14" lengthAdjust="spacing" textLength="96" x="210" y="327.5889">type: varchar</text><ellipse cx="201" cy="337.8906" fill="#000000" rx="3" ry="3" style="stroke:#000000;stroke-width:1.0;"/><text class="f_000000_ffffff" font-family="sans-serif" font-size="14" lengthAdjust="spacing" textLength="109" x="210" y="343.8857">date: datetime</text><ellipse cx="201" cy="354.1875" fill="#000000" rx="3" ry="3" style="stroke:#000000;stroke-width:1.0;"/><text class="f_000000_ffffff" font-family="sans-serif" font-size="14" lengthAdjust="spacing" textLength="122" x="210" y="360.1826">description: text</text><line class="s_181818_e7e7e7" style="stroke-width:0.5;" x1="191" x2="337" y1="367.4844" y2="367.4844"/></g><!--MD5=[72ce1314beffbcf60a64ee91fbbc10dc]
class Contact--><g id="elem_Contact"><rect class="f_f1f1f1_070707 s_181818_e7e7e7" codeLine="34" height="194.6719" id="Contact" rx="2.5" ry="2.5" style="stroke-width:0.5;" width="154" x="373" y="213"/><ellipse class="f_add1b2_2e5233 s_181818_e7e7e7" cx="416.8" cy="229" rx="11" ry="11" style="stroke-width:1.0;"/><path class="f_000000_ffffff" d="M415.5969,229.875 L417.05,229.875 L417.05,229.9844 C417.05,230.3906 417.0813,230.5469 417.1594,230.7031 C417.3156,230.9531 417.5969,231.1094 417.8938,231.1094 C418.1438,231.1094 418.4094,230.9688 418.5656,230.75 C418.6906,230.5938 418.7219,230.4375 418.7219,229.9844 L418.7219,228.0625 C418.7219,227.9063 418.7219,227.8594 418.7063,227.7031 C418.6438,227.2344 418.3313,226.9219 417.8781,226.9219 C417.6281,226.9219 417.3625,227.0625 417.1906,227.2813 C417.0813,227.4531 417.05,227.6094 417.05,228.0625 L417.05,228.1875 L415.5969,228.1875 L415.5969,225.7813 L419.5813,225.7813 L419.5813,226.6406 C419.5813,227.0469 419.6125,227.2188 419.6906,227.375 C419.8625,227.625 420.1438,227.7813 420.425,227.7813 C420.6906,227.7813 420.9563,227.6406 421.1281,227.4219 C421.2375,227.25 421.2688,227.1094 421.2688,226.6406 L421.2688,224.0938 L413.6438,224.0938 C413.2063,224.0938 413.0813,224.1094 412.925,224.2031 C412.675,224.3594 412.5188,224.6563 412.5188,224.9375 C412.5188,225.2188 412.6594,225.4688 412.8781,225.6406 C413.0344,225.75 413.2219,225.7813 413.6438,225.7813 L413.8938,225.7813 L413.8938,232.2969 L413.6438,232.2969 C413.2375,232.2969 413.0813,232.3125 412.925,232.4219 C412.675,232.5938 412.5188,232.8594 412.5188,233.1563 C412.5188,233.4219 412.6594,233.6719 412.8781,233.8281 C413.0188,233.9531 413.2531,234 413.6438,234 L421.6438,234 L421.6438,231.4219 C421.6438,230.9844 421.6125,230.8438 421.5344,230.6875 C421.3625,230.4375 421.0813,230.2813 420.8,230.2813 C420.5344,230.2813 420.2688,230.3906 420.0969,230.6406 C419.9875,230.7969 419.9563,230.9375 419.9563,231.4219 L419.9563,232.2969 L415.5969,232.2969 L415.5969,229.875 Z "/><text class="f_000000_ffffff" font-family="sans-serif" font-size="14" lengthAdjust="spacing" textLength="58" x="437.2" y="233.8467">Contact</text><line class="s_181818_e7e7e7" style="stroke-width:0.5;" x1="374" x2="526" y1="245" y2="245"/><ellipse cx="384" cy="256" fill="#000000" rx="3" ry="3" style="stroke:#000000;stroke-width:1.0;"/><text class="f_000000_ffffff" font-family="sans-serif" font-size="14" lengthAdjust="spacing" textLength="42" x="393" y="261.9951">id: int</text><ellipse cx="384" cy="272.2969" fill="#000000" rx="3" ry="3" style="stroke:#000000;stroke-width:1.0;"/><text class="f_000000_ffffff" font-family="sans-serif" font-size="14" lengthAdjust="spacing" textLength="125" x="393" y="278.292">fullName: varchar</text><ellipse cx="384" cy="288.5938" fill="#000000" rx="3" ry="3" style="stroke:#000000;stroke-width:1.0;"/><text class="f_000000_ffffff" font-family="sans-serif" font-size="14" lengthAdjust="spacing" textLength="96" x="393" y="294.5889">type: varchar</text><ellipse cx="384" cy="304.8906" fill="#000000" rx="3" ry="3" style="stroke:#000000;stroke-width:1.0;"/><text class="f_000000_ffffff" font-family="sans-serif" font-size="14" lengthAdjust="spacing" textLength="90" x="393" y="310.8857">role: varchar</text><text class="f_000000_ffffff" font-family="sans-serif" font-size="14" lengthAdjust="spacing" textLength="128" x="393" y="327.1826">company: varchar</text><text class="f_000000_ffffff" font-family="sans-serif" font-size="14" lengthAdjust="spacing" textLength="117" x="393" y="343.4795">address: varchar</text><text class="f_000000_ffffff" font-family="sans-serif" font-size="14" lengthAdjust="spacing" textLength="108" x="393" y="359.7764">phone: varchar</text><text class="f_000000_ffffff" font-family="sans-serif" font-size="14" lengthAdjust="spacing" textLength="101" x="393" y="376.0732">email: varchar</text><text class="f_000000_ffffff" font-family="sans-serif" font-size="14" lengthAdjust="spacing" textLength="119" x="393" y="392.3701">website: varchar</text><line class="s_181818_e7e7e7" style="stroke-width:0.5;" x1="374" x2="526" y1="399.6719" y2="399.6719"/></g><!--MD5=[3c85ed1c74d2fd8e0488dff9cf058b2b]
link User to Team--><g id="link_User_Team"><path class="s_181818_e7e7e7" codeLine="51" d="M201.061,159.588 C175.751,191.191 147.2,226.84 124.293,255.443 " fill="none" id="User-Team" style="stroke-width:1.0;stroke-dasharray:7.0,7.0;"/><line class="s_181818_e7e7e7" style="stroke-width:1.0;" x1="124.1972" x2="123.879" y1="255.564" y2="265.5589"/><line class="s_181818_e7e7e7" style="stroke-width:1.0;" x1="124.1972" x2="114.513" y1="255.564" y2="258.0571"/><line class="s_181818_e7e7e7" style="stroke-width:1.0;" x1="124.1972" x2="119.196" y1="255.564" y2="261.808"/><ellipse class="s_181818_e7e7e7" cx="127.9481" cy="250.881" fill="none" rx="4" ry="4" style="stroke-width:1.0;"/><line class="s_181818_e7e7e7" style="stroke-width:1.0;" x1="199.2225" x2="206.098" y1="161.8855" y2="153.299"/><ellipse class="s_181818_e7e7e7" cx="199.2225" cy="161.8855" fill="none" rx="4" ry="4" style="stroke-width:1.0;"/><line class="s_181818_e7e7e7" style="stroke-width:1.0;" x1="200.4755" x2="206.7202" y1="153.9212" y2="158.9215"/></g><!--MD5=[29793cb2e6ce1def3d6fecaef4efbf08]
link User to Event--><g id="link_User_Event"><path class="s_181818_e7e7e7" codeLine="56" d="M264,161.398 C264,186.248 264,213.447 264,237.678 " fill="none" id="User-Event" style="stroke-width:1.0;stroke-dasharray:7.0,7.0;"/><line class="s_181818_e7e7e7" style="stroke-width:1.0;" x1="268" x2="260" y1="241.774" y2="241.774"/><line class="s_181818_e7e7e7" style="stroke-width:1.0;" x1="268" x2="260" y1="238.774" y2="238.774"/><line class="s_181818_e7e7e7" style="stroke-width:1.0;" x1="264" x2="264" y1="237.774" y2="245.774"/><line class="s_181818_e7e7e7" style="stroke-width:1.0;" x1="264" x2="258" y1="161.299" y2="153.299"/><line class="s_181818_e7e7e7" style="stroke-width:1.0;" x1="264" x2="270" y1="161.299" y2="153.299"/><line class="s_181818_e7e7e7" style="stroke-width:1.0;" x1="264" x2="264" y1="161.299" y2="153.299"/><ellipse class="s_181818_e7e7e7" cx="264" cy="167.299" fill="none" rx="4" ry="4" style="stroke-width:1.0;"/></g><!--MD5=[5e3e488b34a8e2da8ffe5939cdf7e628]
link User to Contact--><g id="link_User_Contact"><path class="s_181818_e7e7e7" codeLine="61" d="M328.107,159.755 C340.819,175.372 354.331,191.971 367.554,208.216 " fill="none" id="User-Contact" style="stroke-width:1.0;stroke-dasharray:7.0,7.0;"/><line class="s_181818_e7e7e7" style="stroke-width:1.0;" x1="373.3798" x2="367.1747" y1="209.0357" y2="214.0852"/><line class="s_181818_e7e7e7" style="stroke-width:1.0;" x1="371.4862" x2="365.2812" y1="206.7088" y2="211.7583"/><line class="s_181818_e7e7e7" style="stroke-width:1.0;" x1="367.7525" x2="372.802" y1="208.4579" y2="214.663"/><line class="s_181818_e7e7e7" style="stroke-width:1.0;" x1="327.9022" x2="318.1986" y1="159.5035" y2="157.0866"/><line class="s_181818_e7e7e7" style="stroke-width:1.0;" x1="327.9022" x2="327.5054" y1="159.5035" y2="149.5114"/><line class="s_181818_e7e7e7" style="stroke-width:1.0;" x1="327.9022" x2="322.852" y1="159.5035" y2="153.299"/><ellipse class="s_181818_e7e7e7" cx="331.6898" cy="164.1569" fill="none" rx="4" ry="4" style="stroke-width:1.0;"/></g><!--MD5=[ebe8db2991b309efa0d99bbc3d0069c9]
@startuml
'Tables

'Utilisateurs

entity User {
    *id : int
    *fullName: varchar
    *email : varchar
    *password: varchar
    *created_at : datetime
    *role : varchar
}

'Equipes

entity Team {
    *id: int
    *name: varchar
    *description: text
}

'Evenements

entity Event {
    *id: int
    *title: varchar
    *type: varchar 
    *date: datetime
    *description: text
}

'Contacts

entity Contact {
    *id: int
    *fullName: varchar
    *type: varchar
    *role: varchar
    company: varchar
    address: varchar
    phone: varchar
    email: varchar
    website: varchar
}

'Relations

'Un utilisateur peut appartenir à une seule équipe (0,1)
'Une équipe peut regrouper un ensemble d'utilisateurs (0,n)

User |o..o{ Team

'Un utilisateur peut avoir plusieurs événements (0,n)
'Un événement appartient à un seul utilisateur (1,1)

User }o..|| Event

'Un utilisateur peut avoir plusieurs contacts (0,n)
'Un contact appartient à un seul utilisateur (1,1)

User }o..|| Contact
@enduml

@startuml


entity User {
    *id : int
    *fullName: varchar
    *email : varchar
    *password: varchar
    *created_at : datetime
    *role : varchar
}


entity Team {
    *id: int
    *name: varchar
    *description: text
}


entity Event {
    *id: int
    *title: varchar
    *type: varchar 
    *date: datetime
    *description: text
}


entity Contact {
    *id: int
    *fullName: varchar
    *type: varchar
    *role: varchar
    company: varchar
    address: varchar
    phone: varchar
    email: varchar
    website: varchar
}



User |o..o{ Team


User }o..|| Event


User }o..|| Contact
@enduml

PlantUML version 1.2022.2beta5(Unknown compile time)
(GPL source distribution)
Java Runtime: Java(TM) SE Runtime Environment
JVM: Java HotSpot(TM) 64-Bit Server VM
Default Encoding: UTF-8
Language: en
Country: US
--></g></svg>