<?xml version="1.0" encoding="UTF-8" standalone="no"?><svg xmlns="http://www.w3.org/2000/svg" xmlns:xlink="http://www.w3.org/1999/xlink" contentStyleType="text/css" height="463px" preserveAspectRatio="none" style="width:572px;height:463px;" version="1.1" viewBox="0 0 572 463" width="572px" zoomAndPan="magnify"><defs><style type="text/css"><![CDATA[*.f_f1f1f1_070707 {fill:#f1f1f1;}*.s_181818_e7e7e7 {stroke:#181818;}*.f_add1b2_2e5233 {fill:#add1b2;}*.f_000000_ffffff {fill:#000000;}@media (prefers-color-scheme:dark) {*.f_f1f1f1_070707 {fill:#070707;}*.s_181818_e7e7e7 {stroke:#e7e7e7;}*.f_add1b2_2e5233 {fill:#2e5233;}*.f_000000_ffffff {fill:#ffffff;}}]]></style></defs><g><!--MD5=[3fd616f346a44cd59a91eb10b19e157c]
class User--><g id="elem_User"><rect class="f_f1f1f1_070707 s_181818_e7e7e7" codeLine="5" height="162.0781" id="User" rx="2.5" ry="2.5" style="stroke-width:0.5;" width="184" x="184" y="7"/><ellipse class="f_add1b2_2e5233 s_181818_e7e7e7" cx="256.25" cy="23" rx="11" ry="11" style="stroke-width:1.0;"/><path class="f_000000_ffffff" d="M255.0469,23.875 L256.5,23.875 L256.5,23.9844 C256.5,24.3906 256.5313,24.5469 256.6094,24.7031 C256.7656,24.9531 257.0469,25.1094 257.3438,25.1094 C257.5938,25.1094 257.8594,24.9688 258.0156,24.75 C258.1406,24.5938 258.1719,24.4375 258.1719,23.9844 L258.1719,22.0625 C258.1719,21.9063 258.1719,21.8594 258.1563,21.7031 C258.0938,21.2344 257.7813,20.9219 257.3281,20.9219 C257.0781,20.9219 256.8125,21.0625 256.6406,21.2813 C256.5313,21.4531 256.5,21.6094 256.5,22.0625 L256.5,22.1875 L255.0469,22.1875 L255.0469,19.7813 L259.0313,19.7813 L259.0313,20.6406 C259.0313,21.0469 259.0625,21.2188 259.1406,21.375 C259.3125,21.625 259.5938,21.7813 259.875,21.7813 C260.1406,21.7813 260.4063,21.6406 260.5781,21.4219 C260.6875,21.25 260.7188,21.1094 260.7188,20.6406 L260.7188,18.0938 L253.0938,18.0938 C252.6563,18.0938 252.5313,18.1094 252.375,18.2031 C252.125,18.3594 251.9688,18.6563 251.9688,18.9375 C251.9688,19.2188 252.1094,19.4688 252.3281,19.6406 C252.4844,19.75 252.6719,19.7813 253.0938,19.7813 L253.3438,19.7813 L253.3438,26.2969 L253.0938,26.2969 C252.6875,26.2969 252.5313,26.3125 252.375,26.4219 C252.125,26.5938 251.9688,26.8594 251.9688,27.1563 C251.9688,27.4219 252.1094,27.6719 252.3281,27.8281 C252.4688,27.9531 252.7031,28 253.0938,28 L261.0938,28 L261.0938,25.4219 C261.0938,24.9844 261.0625,24.8438 260.9844,24.6875 C260.8125,24.4375 260.5313,24.2813 260.25,24.2813 C259.9844,24.2813 259.7188,24.3906 259.5469,24.6406 C259.4375,24.7969 259.4063,24.9375 259.4063,25.4219 L259.4063,26.2969 L255.0469,26.2969 L255.0469,23.875 Z "/><text class="f_000000_ffffff" font-family="sans-serif" font-size="14" lengthAdjust="spacing" textLength="31" x="276.75" y="27.8467">User</text><line class="s_181818_e7e7e7" style="stroke-width:0.5;" x1="185" x2="367" y1="39" y2="39"/><ellipse cx="195" cy="50" fill="#000000" rx="3" ry="3" style="stroke:#000000;stroke-width:1.0;"/><text class="f_000000_ffffff" font-family="sans-serif" font-size="14" lengthAdjust="spacing" textLength="46" x="204" y="55.9951">id : int</text><ellipse cx="195" cy="66.2969" fill="#000000" rx="3" ry="3" style="stroke:#000000;stroke-width:1.0;"/><text class="f_000000_ffffff" font-family="sans-serif" font-size="14" lengthAdjust="spacing" textLength="133" x="204" y="72.292">firstName: varchar</text><ellipse cx="195" cy="82.5938" fill="#000000" rx="3" ry="3" style="stroke:#000000;stroke-width:1.0;"/><text class="f_000000_ffffff" font-family="sans-serif" font-size="14" lengthAdjust="spacing" textLength="129" x="204" y="88.5889">lastName: varchar</text><ellipse cx="195" cy="98.8906" fill="#000000" rx="3" ry="3" style="stroke:#000000;stroke-width:1.0;"/><text class="f_000000_ffffff" font-family="sans-serif" font-size="14" lengthAdjust="spacing" textLength="105" x="204" y="104.8857">email : varchar</text><ellipse cx="195" cy="115.1875" fill="#000000" rx="3" ry="3" style="stroke:#000000;stroke-width:1.0;"/><text class="f_000000_ffffff" font-family="sans-serif" font-size="14" lengthAdjust="spacing" textLength="158" x="204" y="121.1826">created_at : datetime</text><ellipse cx="195" cy="131.4844" fill="#000000" rx="3" ry="3" style="stroke:#000000;stroke-width:1.0;"/><text class="f_000000_ffffff" font-family="sans-serif" font-size="14" lengthAdjust="spacing" textLength="94" x="204" y="137.4795">role : varchar</text><text class="f_000000_ffffff" font-family="sans-serif" font-size="14" lengthAdjust="spacing" textLength="111" x="204" y="153.7764">active: boolean</text><line class="s_181818_e7e7e7" style="stroke-width:0.5;" x1="185" x2="367" y1="161.0781" y2="161.0781"/></g><!--MD5=[dfb0845b8492ffe07b1ce50e003034d7]
class Team--><g id="elem_Team"><rect class="f_f1f1f1_070707 s_181818_e7e7e7" codeLine="17" height="113.1875" id="Team" rx="2.5" ry="2.5" style="stroke-width:0.5;" width="148" x="7" y="286"/><ellipse class="f_add1b2_2e5233 s_181818_e7e7e7" cx="56.75" cy="302" rx="11" ry="11" style="stroke-width:1.0;"/><path class="f_000000_ffffff" d="M55.5469,302.875 L57,302.875 L57,302.9844 C57,303.3906 57.0313,303.5469 57.1094,303.7031 C57.2656,303.9531 57.5469,304.1094 57.8438,304.1094 C58.0938,304.1094 58.3594,303.9688 58.5156,303.75 C58.6406,303.5938 58.6719,303.4375 58.6719,302.9844 L58.6719,301.0625 C58.6719,300.9063 58.6719,300.8594 58.6563,300.7031 C58.5938,300.2344 58.2813,299.9219 57.8281,299.9219 C57.5781,299.9219 57.3125,300.0625 57.1406,300.2813 C57.0313,300.4531 57,300.6094 57,301.0625 L57,301.1875 L55.5469,301.1875 L55.5469,298.7813 L59.5313,298.7813 L59.5313,299.6406 C59.5313,300.0469 59.5625,300.2188 59.6406,300.375 C59.8125,300.625 60.0938,300.7813 60.375,300.7813 C60.6406,300.7813 60.9063,300.6406 61.0781,300.4219 C61.1875,300.25 61.2188,300.1094 61.2188,299.6406 L61.2188,297.0938 L53.5938,297.0938 C53.1563,297.0938 53.0313,297.1094 52.875,297.2031 C52.625,297.3594 52.4688,297.6563 52.4688,297.9375 C52.4688,298.2188 52.6094,298.4688 52.8281,298.6406 C52.9844,298.75 53.1719,298.7813 53.5938,298.7813 L53.8438,298.7813 L53.8438,305.2969 L53.5938,305.2969 C53.1875,305.2969 53.0313,305.3125 52.875,305.4219 C52.625,305.5938 52.4688,305.8594 52.4688,306.1563 C52.4688,306.4219 52.6094,306.6719 52.8281,306.8281 C52.9688,306.9531 53.2031,307 53.5938,307 L61.5938,307 L61.5938,304.4219 C61.5938,303.9844 61.5625,303.8438 61.4844,303.6875 C61.3125,303.4375 61.0313,303.2813 60.75,303.2813 C60.4844,303.2813 60.2188,303.3906 60.0469,303.6406 C59.9375,303.7969 59.9063,303.9375 59.9063,304.4219 L59.9063,305.2969 L55.5469,305.2969 L55.5469,302.875 Z "/><text class="f_000000_ffffff" font-family="sans-serif" font-size="14" lengthAdjust="spacing" textLength="40" x="77.25" y="306.8467">Team</text><line class="s_181818_e7e7e7" style="stroke-width:0.5;" x1="8" x2="154" y1="318" y2="318"/><ellipse cx="18" cy="329" fill="#000000" rx="3" ry="3" style="stroke:#000000;stroke-width:1.0;"/><text class="f_000000_ffffff" font-family="sans-serif" font-size="14" lengthAdjust="spacing" textLength="42" x="27" y="334.9951">id: int</text><ellipse cx="18" cy="345.2969" fill="#000000" rx="3" ry="3" style="stroke:#000000;stroke-width:1.0;"/><text class="f_000000_ffffff" font-family="sans-serif" font-size="14" lengthAdjust="spacing" textLength="102" x="27" y="351.292">name: varchar</text><ellipse cx="18" cy="361.5938" fill="#000000" rx="3" ry="3" style="stroke:#000000;stroke-width:1.0;"/><text class="f_000000_ffffff" font-family="sans-serif" font-size="14" lengthAdjust="spacing" textLength="122" x="27" y="367.5889">description: text</text><ellipse cx="18" cy="377.8906" fill="#000000" rx="3" ry="3" style="stroke:#000000;stroke-width:1.0;"/><text class="f_000000_ffffff" font-family="sans-serif" font-size="14" lengthAdjust="spacing" textLength="98" x="27" y="383.8857">color: varchar</text><line class="s_181818_e7e7e7" style="stroke-width:0.5;" x1="8" x2="154" y1="391.1875" y2="391.1875"/></g><!--MD5=[ac13618b1a974308c1f12eb6c57723dc]
class Event--><g id="elem_Event"><rect class="f_f1f1f1_070707 s_181818_e7e7e7" codeLine="26" height="145.7813" id="Event" rx="2.5" ry="2.5" style="stroke-width:0.5;" width="172" x="190" y="269.5"/><ellipse class="f_add1b2_2e5233 s_181818_e7e7e7" cx="250.75" cy="285.5" rx="11" ry="11" style="stroke-width:1.0;"/><path class="f_000000_ffffff" d="M249.5469,286.375 L251,286.375 L251,286.4844 C251,286.8906 251.0313,287.0469 251.1094,287.2031 C251.2656,287.4531 251.5469,287.6094 251.8438,287.6094 C252.0938,287.6094 252.3594,287.4688 252.5156,287.25 C252.6406,287.0938 252.6719,286.9375 252.6719,286.4844 L252.6719,284.5625 C252.6719,284.4063 252.6719,284.3594 252.6563,284.2031 C252.5938,283.7344 252.2813,283.4219 251.8281,283.4219 C251.5781,283.4219 251.3125,283.5625 251.1406,283.7813 C251.0313,283.9531 251,284.1094 251,284.5625 L251,284.6875 L249.5469,284.6875 L249.5469,282.2813 L253.5313,282.2813 L253.5313,283.1406 C253.5313,283.5469 253.5625,283.7188 253.6406,283.875 C253.8125,284.125 254.0938,284.2813 254.375,284.2813 C254.6406,284.2813 254.9063,284.1406 255.0781,283.9219 C255.1875,283.75 255.2188,283.6094 255.2188,283.1406 L255.2188,280.5938 L247.5938,280.5938 C247.1563,280.5938 247.0313,280.6094 246.875,280.7031 C246.625,280.8594 246.4688,281.1563 246.4688,281.4375 C246.4688,281.7188 246.6094,281.9688 246.8281,282.1406 C246.9844,282.25 247.1719,282.2813 247.5938,282.2813 L247.8438,282.2813 L247.8438,288.7969 L247.5938,288.7969 C247.1875,288.7969 247.0313,288.8125 246.875,288.9219 C246.625,289.0938 246.4688,289.3594 246.4688,289.6563 C246.4688,289.9219 246.6094,290.1719 246.8281,290.3281 C246.9688,290.4531 247.2031,290.5 247.5938,290.5 L255.5938,290.5 L255.5938,287.9219 C255.5938,287.4844 255.5625,287.3438 255.4844,287.1875 C255.3125,286.9375 255.0313,286.7813 254.75,286.7813 C254.4844,286.7813 254.2188,286.8906 254.0469,287.1406 C253.9375,287.2969 253.9063,287.4375 253.9063,287.9219 L253.9063,288.7969 L249.5469,288.7969 L249.5469,286.375 Z "/><text class="f_000000_ffffff" font-family="sans-serif" font-size="14" lengthAdjust="spacing" textLength="42" x="271.25" y="290.3467">Event</text><line class="s_181818_e7e7e7" style="stroke-width:0.5;" x1="191" x2="361" y1="301.5" y2="301.5"/><ellipse cx="201" cy="312.5" fill="#000000" rx="3" ry="3" style="stroke:#000000;stroke-width:1.0;"/><text class="f_000000_ffffff" font-family="sans-serif" font-size="14" lengthAdjust="spacing" textLength="42" x="210" y="318.4951">id: int</text><ellipse cx="201" cy="328.7969" fill="#000000" rx="3" ry="3" style="stroke:#000000;stroke-width:1.0;"/><text class="f_000000_ffffff" font-family="sans-serif" font-size="14" lengthAdjust="spacing" textLength="93" x="210" y="334.792">title: varchar</text><ellipse cx="201" cy="345.0938" fill="#000000" rx="3" ry="3" style="stroke:#000000;stroke-width:1.0;"/><text class="f_000000_ffffff" font-family="sans-serif" font-size="14" lengthAdjust="spacing" textLength="96" x="210" y="351.0889">type: varchar</text><ellipse cx="201" cy="361.3906" fill="#000000" rx="3" ry="3" style="stroke:#000000;stroke-width:1.0;"/><text class="f_000000_ffffff" font-family="sans-serif" font-size="14" lengthAdjust="spacing" textLength="109" x="210" y="367.3857">date: datetime</text><ellipse cx="201" cy="377.6875" fill="#000000" rx="3" ry="3" style="stroke:#000000;stroke-width:1.0;"/><text class="f_000000_ffffff" font-family="sans-serif" font-size="14" lengthAdjust="spacing" textLength="122" x="210" y="383.6826">description: text</text><text class="f_000000_ffffff" font-family="sans-serif" font-size="14" lengthAdjust="spacing" textLength="146" x="210" y="399.9795">importance: varchar</text><line class="s_181818_e7e7e7" style="stroke-width:0.5;" x1="191" x2="361" y1="407.2813" y2="407.2813"/></g><!--MD5=[72ce1314beffbcf60a64ee91fbbc10dc]
class Contact--><g id="elem_Contact"><rect class="f_f1f1f1_070707 s_181818_e7e7e7" codeLine="37" height="227.2656" id="Contact" rx="2.5" ry="2.5" style="stroke-width:0.5;" width="168" x="397" y="229"/><ellipse class="f_add1b2_2e5233 s_181818_e7e7e7" cx="447.75" cy="245" rx="11" ry="11" style="stroke-width:1.0;"/><path class="f_000000_ffffff" d="M446.5469,245.875 L448,245.875 L448,245.9844 C448,246.3906 448.0313,246.5469 448.1094,246.7031 C448.2656,246.9531 448.5469,247.1094 448.8438,247.1094 C449.0938,247.1094 449.3594,246.9688 449.5156,246.75 C449.6406,246.5938 449.6719,246.4375 449.6719,245.9844 L449.6719,244.0625 C449.6719,243.9063 449.6719,243.8594 449.6563,243.7031 C449.5938,243.2344 449.2813,242.9219 448.8281,242.9219 C448.5781,242.9219 448.3125,243.0625 448.1406,243.2813 C448.0313,243.4531 448,243.6094 448,244.0625 L448,244.1875 L446.5469,244.1875 L446.5469,241.7813 L450.5313,241.7813 L450.5313,242.6406 C450.5313,243.0469 450.5625,243.2188 450.6406,243.375 C450.8125,243.625 451.0938,243.7813 451.375,243.7813 C451.6406,243.7813 451.9063,243.6406 452.0781,243.4219 C452.1875,243.25 452.2188,243.1094 452.2188,242.6406 L452.2188,240.0938 L444.5938,240.0938 C444.1563,240.0938 444.0313,240.1094 443.875,240.2031 C443.625,240.3594 443.4688,240.6563 443.4688,240.9375 C443.4688,241.2188 443.6094,241.4688 443.8281,241.6406 C443.9844,241.75 444.1719,241.7813 444.5938,241.7813 L444.8438,241.7813 L444.8438,248.2969 L444.5938,248.2969 C444.1875,248.2969 444.0313,248.3125 443.875,248.4219 C443.625,248.5938 443.4688,248.8594 443.4688,249.1563 C443.4688,249.4219 443.6094,249.6719 443.8281,249.8281 C443.9688,249.9531 444.2031,250 444.5938,250 L452.5938,250 L452.5938,247.4219 C452.5938,246.9844 452.5625,246.8438 452.4844,246.6875 C452.3125,246.4375 452.0313,246.2813 451.75,246.2813 C451.4844,246.2813 451.2188,246.3906 451.0469,246.6406 C450.9375,246.7969 450.9063,246.9375 450.9063,247.4219 L450.9063,248.2969 L446.5469,248.2969 L446.5469,245.875 Z "/><text class="f_000000_ffffff" font-family="sans-serif" font-size="14" lengthAdjust="spacing" textLength="58" x="468.25" y="249.8467">Contact</text><line class="s_181818_e7e7e7" style="stroke-width:0.5;" x1="398" x2="564" y1="261" y2="261"/><ellipse cx="408" cy="272" fill="#000000" rx="3" ry="3" style="stroke:#000000;stroke-width:1.0;"/><text class="f_000000_ffffff" font-family="sans-serif" font-size="14" lengthAdjust="spacing" textLength="42" x="417" y="277.9951">id: int</text><ellipse cx="408" cy="288.2969" fill="#000000" rx="3" ry="3" style="stroke:#000000;stroke-width:1.0;"/><text class="f_000000_ffffff" font-family="sans-serif" font-size="14" lengthAdjust="spacing" textLength="96" x="417" y="294.292">type: varchar</text><ellipse cx="408" cy="304.5938" fill="#000000" rx="3" ry="3" style="stroke:#000000;stroke-width:1.0;"/><text class="f_000000_ffffff" font-family="sans-serif" font-size="14" lengthAdjust="spacing" textLength="122" x="417" y="310.5889">function: varchar</text><ellipse cx="408" cy="320.8906" fill="#000000" rx="3" ry="3" style="stroke:#000000;stroke-width:1.0;"/><text class="f_000000_ffffff" font-family="sans-serif" font-size="14" lengthAdjust="spacing" textLength="102" x="417" y="326.8857">name: varchar</text><text class="f_000000_ffffff" font-family="sans-serif" font-size="14" lengthAdjust="spacing" textLength="128" x="417" y="343.1826">company: varchar</text><text class="f_000000_ffffff" font-family="sans-serif" font-size="14" lengthAdjust="spacing" textLength="142" x="417" y="359.4795">occupation: varchar</text><text class="f_000000_ffffff" font-family="sans-serif" font-size="14" lengthAdjust="spacing" textLength="85" x="417" y="375.7764">vat: varchar</text><text class="f_000000_ffffff" font-family="sans-serif" font-size="14" lengthAdjust="spacing" textLength="117" x="417" y="392.0732">address: varchar</text><text class="f_000000_ffffff" font-family="sans-serif" font-size="14" lengthAdjust="spacing" textLength="108" x="417" y="408.3701">phone: varchar</text><text class="f_000000_ffffff" font-family="sans-serif" font-size="14" lengthAdjust="spacing" textLength="101" x="417" y="424.667">email: varchar</text><text class="f_000000_ffffff" font-family="sans-serif" font-size="14" lengthAdjust="spacing" textLength="119" x="417" y="440.9639">website: varchar</text><line class="s_181818_e7e7e7" style="stroke-width:0.5;" x1="398" x2="564" y1="448.2656" y2="448.2656"/></g><!--MD5=[3c85ed1c74d2fd8e0488dff9cf058b2b]
link User to Team--><g id="link_User_Team"><path class="s_181818_e7e7e7" codeLine="56" d="M208.829,175.978 C182.578,209.97 153.069,248.18 129.023,279.316 " fill="none" id="User-Team" style="stroke-width:1.0;stroke-dasharray:7.0,7.0;"/><line class="s_181818_e7e7e7" style="stroke-width:1.0;" x1="128.868" x2="128.7266" y1="279.5175" y2="289.5165"/><line class="s_181818_e7e7e7" style="stroke-width:1.0;" x1="128.868" x2="119.2294" y1="279.5175" y2="282.1815"/><line class="s_181818_e7e7e7" style="stroke-width:1.0;" x1="128.868" x2="123.978" y1="279.5175" y2="285.849"/><ellipse class="s_181818_e7e7e7" cx="132.5356" cy="274.7689" fill="none" rx="4" ry="4" style="stroke-width:1.0;"/><line class="s_181818_e7e7e7" style="stroke-width:1.0;" x1="207.3092" x2="214.033" y1="177.9458" y2="169.24"/><ellipse class="s_181818_e7e7e7" cx="207.3092" cy="177.9458" fill="none" rx="4" ry="4" style="stroke-width:1.0;"/><line class="s_181818_e7e7e7" style="stroke-width:1.0;" x1="208.4222" x2="214.7537" y1="169.9607" y2="174.8508"/></g><!--MD5=[29793cb2e6ce1def3d6fecaef4efbf08]
link User to Event--><g id="link_User_Event"><path class="s_181818_e7e7e7" codeLine="61" d="M276,177.6 C276,204.747 276,234.451 276,261.026 " fill="none" id="User-Event" style="stroke-width:1.0;stroke-dasharray:7.0,7.0;"/><line class="s_181818_e7e7e7" style="stroke-width:1.0;" x1="280" x2="272" y1="265.166" y2="265.166"/><line class="s_181818_e7e7e7" style="stroke-width:1.0;" x1="280" x2="272" y1="262.166" y2="262.166"/><line class="s_181818_e7e7e7" style="stroke-width:1.0;" x1="276" x2="276" y1="261.166" y2="269.166"/><line class="s_181818_e7e7e7" style="stroke-width:1.0;" x1="276" x2="270" y1="177.24" y2="169.24"/><line class="s_181818_e7e7e7" style="stroke-width:1.0;" x1="276" x2="282" y1="177.24" y2="169.24"/><line class="s_181818_e7e7e7" style="stroke-width:1.0;" x1="276" x2="276" y1="177.24" y2="169.24"/><ellipse class="s_181818_e7e7e7" cx="276" cy="183.24" fill="none" rx="4" ry="4" style="stroke-width:1.0;"/></g><!--MD5=[5e3e488b34a8e2da8ffe5939cdf7e628]
link User to Contact--><g id="link_User_Contact"><path class="s_181818_e7e7e7" codeLine="66" d="M346.378,175.686 C360.983,193.675 376.556,212.856 391.735,231.552 " fill="none" id="User-Contact" style="stroke-width:1.0;stroke-dasharray:7.0,7.0;"/><line class="s_181818_e7e7e7" style="stroke-width:1.0;" x1="397.4504" x2="391.2394" y1="232.2444" y2="237.2866"/><line class="s_181818_e7e7e7" style="stroke-width:1.0;" x1="395.5595" x2="389.3486" y1="229.9153" y2="234.9575"/><line class="s_181818_e7e7e7" style="stroke-width:1.0;" x1="391.8238" x2="396.866" y1="231.66" y2="237.871"/><line class="s_181818_e7e7e7" style="stroke-width:1.0;" x1="346.1881" x2="336.4873" y1="175.4503" y2="173.0223"/><line class="s_181818_e7e7e7" style="stroke-width:1.0;" x1="346.1881" x2="345.8027" y1="175.4503" y2="165.4577"/><line class="s_181818_e7e7e7" style="stroke-width:1.0;" x1="346.1881" x2="341.145" y1="175.4503" y2="169.24"/><ellipse class="s_181818_e7e7e7" cx="349.9704" cy="180.108" fill="none" rx="4" ry="4" style="stroke-width:1.0;"/></g><!--MD5=[1c7db737bf1a628c9b5e10ae52c60b20]
@startuml
'Tables

'Utilisateurs

entity User {
    *id : int
    *firstName: varchar
    *lastName: varchar
    *email : varchar
    *created_at : datetime
    *role : varchar
    active: boolean
}

'Equipes

entity Team {
    *id: int
    *name: varchar
    *description: text
    *color: varchar
}

'Evenements

entity Event {
    *id: int
    *title: varchar
    *type: varchar 
    *date: datetime
    *description: text
    importance: varchar
}

'Contacts

entity Contact {
    *id: int
    *type: varchar
    *function: varchar
    *name: varchar
    company: varchar
    occupation: varchar
    vat: varchar
    address: varchar
    phone: varchar
    email: varchar
    website: varchar
}

'Relation

'Un utilisateur peut appartenir à une seule équipe (0,1)
'Une équipe peut regrouper un ensemble d'utilisateurs (0,n)

User |o..o{ Team

'Un utilisateur peut avoir plusieurs événements (0,n)
'Un événement appartient à un seul utilisateur (1,1)

User }o..|| Event

'Un utilisateur peut avoir plusieurs contacts (0,n)
'Un contact appartient à un seul utilisateur (1,1)

User }o..|| Contact
@enduml

@startuml


entity User {
    *id : int
    *firstName: varchar
    *lastName: varchar
    *email : varchar
    *created_at : datetime
    *role : varchar
    active: boolean
}


entity Team {
    *id: int
    *name: varchar
    *description: text
    *color: varchar
}


entity Event {
    *id: int
    *title: varchar
    *type: varchar 
    *date: datetime
    *description: text
    importance: varchar
}


entity Contact {
    *id: int
    *type: varchar
    *function: varchar
    *name: varchar
    company: varchar
    occupation: varchar
    vat: varchar
    address: varchar
    phone: varchar
    email: varchar
    website: varchar
}



User |o..o{ Team


User }o..|| Event


User }o..|| Contact
@enduml

PlantUML version 1.2022.2beta5(Unknown compile time)
(GPL source distribution)
Java Runtime: Java(TM) SE Runtime Environment
JVM: Java HotSpot(TM) 64-Bit Server VM
Default Encoding: UTF-8
Language: en
Country: US
--></g></svg>